<svg width="207" height="251" viewBox="0 0 207 251" fill="none" xmlns="http://www.w3.org/2000/svg">
<path d="M45.5729 140.161C43.2444 130.408 41.1243 120.446 37.4639 111.166C51.4621 114.392 64.5451 123.2 74.2849 134.108C88.5367 150.051 97.2527 170.03 106.893 189.127C110.136 195.544 113.57 201.962 117.357 208.124C113.045 206.743 108.723 205.406 104.447 203.97C88.2921 198.589 71.8386 191.418 61.22 178.056C52.649 167.276 48.7712 153.578 45.5729 140.161Z" fill="#061A2A"/>
<path d="M37.6907 111.175C41.3601 120.455 43.4803 130.417 45.7997 140.171C48.998 153.587 52.8758 167.285 61.4468 178.065C72.0654 191.427 88.5189 198.598 104.673 203.979C108.95 205.416 113.272 206.743 117.584 208.133C129.571 211.978 141.458 216.105 151.914 223.04C161.463 229.367 169.699 239.374 173.477 250H0.244659V79.1249C13.9891 79.2885 25.8852 89.1779 32.8435 101.076C34.728 104.321 36.3226 107.703 37.6907 111.175Z" fill="#F1E9C8"/>
<path d="M0.00906242 96.4496C7.78278 100.376 14.3242 107.221 18.8181 114.901C20.7117 118.146 22.2973 121.528 23.6745 125.009C27.3439 134.29 29.464 144.252 31.7834 154.005C34.9817 167.421 38.8595 181.119 47.4305 191.899C58.0491 205.261 74.4936 212.433 90.6571 217.814C94.9335 219.25 99.2553 220.577 103.568 221.968C115.555 225.813 127.442 229.939 137.897 236.875C143.098 240.32 147.918 244.864 151.832 250" stroke="#061A2A" stroke-miterlimit="10"/>
<path d="M37.4551 111.166C36.087 107.693 34.4924 104.303 32.5988 101.058C25.6405 89.1688 13.7534 79.2703 -8.39233e-05 79.1066V-3.8147e-05C29.0834 20.9696 49.5686 53.8649 55.0048 89.4415C56.5541 99.5946 57.0344 110.175 58.4478 120.401C51.9425 116.11 44.8301 112.865 37.4551 111.166Z" fill="#061A2A"/>
<path d="M99.817 174.92C101.756 175.756 103.713 176.538 105.67 177.274C120.375 182.773 135.886 185.946 150.464 191.754C176.512 202.116 200.178 223.268 207 249.991H173.232C169.463 239.365 161.218 229.358 151.669 223.031C141.213 216.105 129.326 211.969 117.34 208.124C113.552 201.962 110.118 195.544 106.875 189.127C104.51 184.419 102.191 179.665 99.817 174.92Z" fill="#061A2A"/>
</svg>
